<mxfile host="65bd71144e">
    <diagram id="8Dqo7gBfx2snFJ1yo_fi" name="Type system">
        <mxGraphModel dx="818" dy="667" grid="0" gridSize="10" guides="1" tooltips="1" connect="1" arrows="1" fold="1" page="1" pageScale="1" pageWidth="850" pageHeight="1100" math="0" shadow="0">
            <root>
                <mxCell id="rtdV7pdSxokEtS1DbYBs-0"/>
                <mxCell id="rtdV7pdSxokEtS1DbYBs-1" parent="rtdV7pdSxokEtS1DbYBs-0"/>
                <mxCell id="rtdV7pdSxokEtS1DbYBs-2" value="Value" style="swimlane;fontStyle=0;childLayout=stackLayout;horizontal=1;startSize=26;horizontalStack=0;resizeParent=1;resizeParentMax=0;resizeLast=0;collapsible=1;marginBottom=0;" parent="rtdV7pdSxokEtS1DbYBs-1" vertex="1">
                    <mxGeometry x="24" y="320" width="140" height="156" as="geometry"/>
                </mxCell>
                <mxCell id="rtdV7pdSxokEtS1DbYBs-41" value="* id : uuid" style="text;strokeColor=none;fillColor=none;align=left;verticalAlign=top;spacingLeft=4;spacingRight=4;overflow=hidden;rotatable=0;points=[[0,0.5],[1,0.5]];portConstraint=eastwest;" parent="rtdV7pdSxokEtS1DbYBs-2" vertex="1">
                    <mxGeometry y="26" width="140" height="26" as="geometry"/>
                </mxCell>
                <mxCell id="rtdV7pdSxokEtS1DbYBs-3" value="name : string" style="text;strokeColor=none;fillColor=none;align=left;verticalAlign=top;spacingLeft=4;spacingRight=4;overflow=hidden;rotatable=0;points=[[0,0.5],[1,0.5]];portConstraint=eastwest;" parent="rtdV7pdSxokEtS1DbYBs-2" vertex="1">
                    <mxGeometry y="52" width="140" height="26" as="geometry"/>
                </mxCell>
                <mxCell id="rtdV7pdSxokEtS1DbYBs-14" value="value : float" style="text;strokeColor=none;fillColor=none;align=left;verticalAlign=top;spacingLeft=4;spacingRight=4;overflow=hidden;rotatable=0;points=[[0,0.5],[1,0.5]];portConstraint=eastwest;" parent="rtdV7pdSxokEtS1DbYBs-2" vertex="1">
                    <mxGeometry y="78" width="140" height="26" as="geometry"/>
                </mxCell>
                <mxCell id="rtdV7pdSxokEtS1DbYBs-15" value="category : uuid" style="text;strokeColor=none;fillColor=none;align=left;verticalAlign=top;spacingLeft=4;spacingRight=4;overflow=hidden;rotatable=0;points=[[0,0.5],[1,0.5]];portConstraint=eastwest;" parent="rtdV7pdSxokEtS1DbYBs-2" vertex="1">
                    <mxGeometry y="104" width="140" height="26" as="geometry"/>
                </mxCell>
                <mxCell id="rtdV7pdSxokEtS1DbYBs-4" value="timestamp : timestamp" style="text;strokeColor=none;fillColor=none;align=left;verticalAlign=top;spacingLeft=4;spacingRight=4;overflow=hidden;rotatable=0;points=[[0,0.5],[1,0.5]];portConstraint=eastwest;" parent="rtdV7pdSxokEtS1DbYBs-2" vertex="1">
                    <mxGeometry y="130" width="140" height="26" as="geometry"/>
                </mxCell>
                <mxCell id="rtdV7pdSxokEtS1DbYBs-6" value="Category" style="swimlane;fontStyle=0;childLayout=stackLayout;horizontal=1;startSize=26;horizontalStack=0;resizeParent=1;resizeParentMax=0;resizeLast=0;collapsible=1;marginBottom=0;" parent="rtdV7pdSxokEtS1DbYBs-1" vertex="1">
                    <mxGeometry x="308" y="220" width="140" height="130" as="geometry"/>
                </mxCell>
                <mxCell id="rtdV7pdSxokEtS1DbYBs-40" value="* id : uuid" style="text;strokeColor=none;fillColor=none;align=left;verticalAlign=top;spacingLeft=4;spacingRight=4;overflow=hidden;rotatable=0;points=[[0,0.5],[1,0.5]];portConstraint=eastwest;" parent="rtdV7pdSxokEtS1DbYBs-6" vertex="1">
                    <mxGeometry y="26" width="140" height="26" as="geometry"/>
                </mxCell>
                <mxCell id="rtdV7pdSxokEtS1DbYBs-30" value="name : string" style="text;strokeColor=none;fillColor=none;align=left;verticalAlign=top;spacingLeft=4;spacingRight=4;overflow=hidden;rotatable=0;points=[[0,0.5],[1,0.5]];portConstraint=eastwest;" parent="rtdV7pdSxokEtS1DbYBs-6" vertex="1">
                    <mxGeometry y="52" width="140" height="26" as="geometry"/>
                </mxCell>
                <mxCell id="rtdV7pdSxokEtS1DbYBs-28" value="calculated : bool" style="text;strokeColor=none;fillColor=none;align=left;verticalAlign=top;spacingLeft=4;spacingRight=4;overflow=hidden;rotatable=0;points=[[0,0.5],[1,0.5]];portConstraint=eastwest;" parent="rtdV7pdSxokEtS1DbYBs-6" vertex="1">
                    <mxGeometry y="78" width="140" height="26" as="geometry"/>
                </mxCell>
                <mxCell id="rtdV7pdSxokEtS1DbYBs-7" value="workspace : uuid" style="text;strokeColor=none;fillColor=none;align=left;verticalAlign=top;spacingLeft=4;spacingRight=4;overflow=hidden;rotatable=0;points=[[0,0.5],[1,0.5]];portConstraint=eastwest;" parent="rtdV7pdSxokEtS1DbYBs-6" vertex="1">
                    <mxGeometry y="104" width="140" height="26" as="geometry"/>
                </mxCell>
                <mxCell id="rtdV7pdSxokEtS1DbYBs-23" value="Workspace" style="swimlane;fontStyle=0;childLayout=stackLayout;horizontal=1;startSize=26;horizontalStack=0;resizeParent=1;resizeParentMax=0;resizeLast=0;collapsible=1;marginBottom=0;" parent="rtdV7pdSxokEtS1DbYBs-1" vertex="1">
                    <mxGeometry x="510" y="353" width="140" height="78" as="geometry"/>
                </mxCell>
                <mxCell id="rtdV7pdSxokEtS1DbYBs-38" value="* id : uuid" style="text;strokeColor=none;fillColor=none;align=left;verticalAlign=top;spacingLeft=4;spacingRight=4;overflow=hidden;rotatable=0;points=[[0,0.5],[1,0.5]];portConstraint=eastwest;" parent="rtdV7pdSxokEtS1DbYBs-23" vertex="1">
                    <mxGeometry y="26" width="140" height="26" as="geometry"/>
                </mxCell>
                <mxCell id="rtdV7pdSxokEtS1DbYBs-24" value="name : string" style="text;strokeColor=none;fillColor=none;align=left;verticalAlign=top;spacingLeft=4;spacingRight=4;overflow=hidden;rotatable=0;points=[[0,0.5],[1,0.5]];portConstraint=eastwest;" parent="rtdV7pdSxokEtS1DbYBs-23" vertex="1">
                    <mxGeometry y="52" width="140" height="26" as="geometry"/>
                </mxCell>
                <mxCell id="rtdV7pdSxokEtS1DbYBs-31" value="User" style="swimlane;fontStyle=0;childLayout=stackLayout;horizontal=1;startSize=26;horizontalStack=0;resizeParent=1;resizeParentMax=0;resizeLast=0;collapsible=1;marginBottom=0;" parent="rtdV7pdSxokEtS1DbYBs-1" vertex="1">
                    <mxGeometry x="756" y="220" width="140" height="104" as="geometry"/>
                </mxCell>
                <mxCell id="rtdV7pdSxokEtS1DbYBs-39" value="* id : uuid" style="text;strokeColor=none;fillColor=none;align=left;verticalAlign=top;spacingLeft=4;spacingRight=4;overflow=hidden;rotatable=0;points=[[0,0.5],[1,0.5]];portConstraint=eastwest;" parent="rtdV7pdSxokEtS1DbYBs-31" vertex="1">
                    <mxGeometry y="26" width="140" height="26" as="geometry"/>
                </mxCell>
                <mxCell id="rtdV7pdSxokEtS1DbYBs-33" value="name : string" style="text;strokeColor=none;fillColor=none;align=left;verticalAlign=top;spacingLeft=4;spacingRight=4;overflow=hidden;rotatable=0;points=[[0,0.5],[1,0.5]];portConstraint=eastwest;" parent="rtdV7pdSxokEtS1DbYBs-31" vertex="1">
                    <mxGeometry y="52" width="140" height="26" as="geometry"/>
                </mxCell>
                <mxCell id="rtdV7pdSxokEtS1DbYBs-32" value="workspaces : [uuid]" style="text;strokeColor=none;fillColor=none;align=left;verticalAlign=top;spacingLeft=4;spacingRight=4;overflow=hidden;rotatable=0;points=[[0,0.5],[1,0.5]];portConstraint=eastwest;" parent="rtdV7pdSxokEtS1DbYBs-31" vertex="1">
                    <mxGeometry y="78" width="140" height="26" as="geometry"/>
                </mxCell>
                <mxCell id="rtdV7pdSxokEtS1DbYBs-42" style="edgeStyle=none;html=1;exitX=0;exitY=0.5;exitDx=0;exitDy=0;entryX=1;entryY=0.5;entryDx=0;entryDy=0;" parent="rtdV7pdSxokEtS1DbYBs-1" source="rtdV7pdSxokEtS1DbYBs-32" target="rtdV7pdSxokEtS1DbYBs-38" edge="1">
                    <mxGeometry relative="1" as="geometry">
                        <Array as="points">
                            <mxPoint x="713" y="311"/>
                            <mxPoint x="672" y="392"/>
                        </Array>
                    </mxGeometry>
                </mxCell>
                <mxCell id="rtdV7pdSxokEtS1DbYBs-43" style="edgeStyle=none;html=1;exitX=1;exitY=0.5;exitDx=0;exitDy=0;entryX=0;entryY=0.5;entryDx=0;entryDy=0;" parent="rtdV7pdSxokEtS1DbYBs-1" source="rtdV7pdSxokEtS1DbYBs-7" target="rtdV7pdSxokEtS1DbYBs-38" edge="1">
                    <mxGeometry relative="1" as="geometry">
                        <Array as="points">
                            <mxPoint x="468" y="337"/>
                            <mxPoint x="482" y="392"/>
                        </Array>
                    </mxGeometry>
                </mxCell>
                <mxCell id="rtdV7pdSxokEtS1DbYBs-44" style="edgeStyle=none;html=1;exitX=1;exitY=0.5;exitDx=0;exitDy=0;entryX=0;entryY=0.5;entryDx=0;entryDy=0;" parent="rtdV7pdSxokEtS1DbYBs-1" source="rtdV7pdSxokEtS1DbYBs-15" target="rtdV7pdSxokEtS1DbYBs-40" edge="1">
                    <mxGeometry relative="1" as="geometry">
                        <mxPoint x="282.50779724121094" y="437.84373474121094" as="targetPoint"/>
                        <Array as="points">
                            <mxPoint x="210" y="437"/>
                            <mxPoint x="247" y="259"/>
                        </Array>
                    </mxGeometry>
                </mxCell>
                <mxCell id="rtdV7pdSxokEtS1DbYBs-46" value="" style="endArrow=none;dashed=1;html=1;dashPattern=1 3;strokeWidth=2;" parent="rtdV7pdSxokEtS1DbYBs-1" edge="1">
                    <mxGeometry width="50" height="50" relative="1" as="geometry">
                        <mxPoint x="236" y="699" as="sourcePoint"/>
                        <mxPoint x="236" y="46" as="targetPoint"/>
                    </mxGeometry>
                </mxCell>
                <mxCell id="rtdV7pdSxokEtS1DbYBs-47" value="" style="endArrow=none;dashed=1;html=1;dashPattern=1 3;strokeWidth=2;" parent="rtdV7pdSxokEtS1DbYBs-1" edge="1">
                    <mxGeometry width="50" height="50" relative="1" as="geometry">
                        <mxPoint x="479" y="703" as="sourcePoint"/>
                        <mxPoint x="479" y="50" as="targetPoint"/>
                    </mxGeometry>
                </mxCell>
                <mxCell id="rtdV7pdSxokEtS1DbYBs-48" value="" style="endArrow=none;dashed=1;html=1;dashPattern=1 3;strokeWidth=2;" parent="rtdV7pdSxokEtS1DbYBs-1" edge="1">
                    <mxGeometry width="50" height="50" relative="1" as="geometry">
                        <mxPoint x="703" y="709" as="sourcePoint"/>
                        <mxPoint x="703" y="56" as="targetPoint"/>
                    </mxGeometry>
                </mxCell>
            </root>
        </mxGraphModel>
    </diagram>
</mxfile>